{"scene":0,"scenes":[{"nodes":[0],"extras":{"title":"Romanov Chambers 1859/1883 research reconstruction v1","status":"production-candidate-not-field-certified","units":"meters","era":"1859-restoration-as-documented-by-1883-photo","scale_status":"provisional-pending-architectural-survey","evidence_layers":["documented","reconstructed","hypothesis"]}}],"asset":{"version":"2.0","generator":"https://github.com/mikedh/trimesh"},"accessors":[{"componentType":5125,"type":"SCALAR","bufferView":0,"count":36,"max":[7],"min":[0]},{"componentType":5126,"type":"VEC3","byteOffset":0,"bufferView":1,"count":8,"max":[6.300000190734863,3.799999952316284,4.300000190734863],"min":[-6.300000190734863,-3.799999952316284,0.0]},{"componentType":5121,"normalized":true,"type":"VEC4","byteOffset":0,"bufferView":2,"count":8,"max":[194,181,154,255],"min":[194,181,154,255]},{"componentType":5126,"type":"VEC3","byteOffset":0,"bufferView":3,"count":8,"max":[6.300000190734863,3.799999952316284,7.800000190734863],"min":[-6.300000190734863,-3.799999952316284,4.300000190734863]},{"componentType":5126,"type":"VEC3","byteOffset":0,"bufferView":4,"count":8,"max":[-5.353014945983887,-3.809999942779541,1.3969848155975342],"min":[-5.946984767913818,-3.9100000858306885,0.8030151724815369]},{"componentType":5121,"normalized":true,"type":"VEC4","byteOffset":0,"bufferView":5,"count":8,"max":[171,124,78,255],"min":[171,124,78,255]},{"componentType":5126,"type":"VEC3","byteOffset":0,"bufferView":6,"count":8,"max":[-4.411348342895508,-3.809999942779541,1.3969848155975342],"min":[-5.0053181648254395,-3.9100000858306885,0.8030151724815369]},{"componentType":5126,"type":"VEC3","byteOffset":0,"bufferView":7,"count":8,"max":[-3.469681739807129,-3.809999942779541,1.3969848155975342],"min":[-4.0636515617370605,-3.9100000858306885,0.8030151724815369]},{"componentType":5126,"type":"VEC3","byteOffset":0,"bufferView":8,"count":8,"max":[-2.52801513671875,-3.809999942779541,1.3969848155975342],"min":[-3.1219849586486816,-3.9100000858306885,0.8030151724815369]},{"componentType":5126,"type":"VEC3","byteOffset":0,"bufferView":9,"count":8,"max":[-1.586348533630371,-3.809999942779541,1.3969848155975342],"min":[-2.1803181171417236,-3.9100000858306885,0.8030151724815369]},{"componentType":5126,"type":"VEC3","byteOffset":0,"bufferView":10,"count":8,"max":[-0.6446818113327026,-3.809999942779541,1.3969848155975342],"min":[-1.2386515140533447,-3.9100000858306885,0.8030151724815369]},{"componentType":5126,"type":"VEC3","byteOffset":0,"bufferView":11,"count":8,"max":[0.29698485136032104,-3.809999942779541,1.3969848155975342],"min":[-0.29698485136032104,-3.9100000858306885,0.8030151724815369]},{"componentType":5126,"type":"VEC3","byteOffset":0,"bufferView":12,"count":8,"max":[1.2386515140533447,-3.809999942779541,1.3969848155975342],"min":[0.6446818113327026,-3.9100000858306885,0.8030151724815369]},{"componentType":5126,"type":"VEC3","byteOffset":0,"bufferView":13,"count":8,"max":[2.1803181171417236,-3.809999942779541,1.3969848155975342],"min":[1.586348533630371,-3.9100000858306885,0.8030151724815369]},{"componentType":5126,"type":"VEC3","byteOffset":0,"bufferView":14,"count":8,"max":[3.1219849586486816,-3.809999942779541,1.3969848155975342],"min":[2.52801513671875,-3.9100000858306885,0.8030151724815369]},{"componentType":5126,"type":"VEC3","byteOffset":0,"bufferView":15,"count":8,"max":[4.0636515617370605,-3.809999942779541,1.3969848155975342],"min":[3.469681739807129,-3.9100000858306885,0.8030151724815369]},{"componentType":5126,"type":"VEC3","byteOffset":0,"bufferView":16,"count":8,"max":[5.0053181648254395,-3.809999942779541,1.3969848155975342],"min":[4.411348342895508,-3.9100000858306885,0.8030151724815369]},{"componentType":5126,"type":"VEC3","byteOffset":0,"bufferView":17,"count":8,"max":[5.946984767913818,-3.809999942779541,1.3969848155975342],"min":[5.353014945983887,-3.9100000858306885,0.8030151724815369]},{"componentType":5126,"type":"VEC3","byteOffset":0,"bufferView":18,"count":8,"max":[-4.882181644439697,-3.809999942779541,1.9569848775863647],"min":[-5.476151466369629,-3.9100000858306885,1.3630151748657227]},{"componentType":5126,"type":"VEC3","byteOffset":0,"bufferView":19,"count":8,"max":[-3.9405150413513184,-3.809999942779541,1.9569848775863647],"min":[-4.53448486328125,-3.9100000858306885,1.3630151748657227]},{"componentType":5126,"type":"VEC3","byteOffset":0,"bufferView":20,"count":8,"max":[-2.9988484382629395,-3.809999942779541,1.9569848775863647],"min":[-3.592818260192871,-3.9100000858306885,1.3630151748657227]},{"componentType":5126,"type":"VEC3","byteOffset":0,"bufferView":21,"count":8,"max":[-2.0571818351745605,-3.809999942779541,1.9569848775863647],"min":[-2.651151418685913,-3.9100000858306885,1.3630151748657227]},{"componentType":5126,"type":"VEC3","byteOffset":0,"bufferView":22,"count":8,"max":[-1.115515112876892,-3.809999942779541,1.9569848775863647],"min":[-1.7094848155975342,-3.9100000858306885,1.3630151748657227]},{"componentType":5126,"type":"VEC3","byteOffset":0,"bufferView":23,"count":8,"max":[-0.1738484799861908,-3.809999942779541,1.9569848775863647],"min":[-0.7678181529045105,-3.9100000858306885,1.3630151748657227]},{"componentType":5126,"type":"VEC3","byteOffset":0,"bufferView":24,"count":8,"max":[0.7678181529045105,-3.809999942779541,1.9569848775863647],"min":[0.1738484799861908,-3.9100000858306885,1.3630151748657227]},{"componentType":5126,"type":"VEC3","byteOffset":0,"bufferView":25,"count":8,"max":[1.7094848155975342,-3.809999942779541,1.9569848775863647],"min":[1.115515112876892,-3.9100000858306885,1.3630151748657227]},{"componentType":5126,"type":"VEC3","byteOffset":0,"bufferView":26,"count":8,"max":[2.651151418685913,-3.809999942779541,1.9569848775863647],"min":[2.0571818351745605,-3.9100000858306885,1.3630151748657227]},{"componentType":5126,"type":"VEC3","byteOffset":0,"bufferView":27,"count":8,"max":[3.592818260192871,-3.809999942779541,1.9569848775863647],"min":[2.9988484382629395,-3.9100000858306885,1.3630151748657227]},{"componentType":5126,"type":"VEC3","byteOffset":0,"bufferView":28,"count":8,"max":[4.53448486328125,-3.809999942779541,1.9569848775863647],"min":[3.9405150413513184,-3.9100000858306885,1.3630151748657227]},{"componentType":5126,"type":"VEC3","byteOffset":0,"bufferView":29,"count":8,"max":[5.476151466369629,-3.809999942779541,1.9569848775863647],"min":[4.882181644439697,-3.9100000858306885,1.3630151748657227]},{"componentType":5126,"type":"VEC3","byteOffset":0,"bufferView":30,"count":8,"max":[-5.353014945983887,-3.809999942779541,2.5169849395751953],"min":[-5.946984767913818,-3.9100000858306885,1.9230151176452637]},{"componentType":5126,"type":"VEC3","byteOffset":0,"bufferView":31,"count":8,"max":[-4.411348342895508,-3.809999942779541,2.5169849395751953],"min":[-5.0053181648254395,-3.9100000858306885,1.9230151176452637]},{"componentType":5126,"type":"VEC3","byteOffset":0,"bufferView":32,"count":8,"max":[-3.469681739807129,-3.809999942779541,2.5169849395751953],"min":[-4.0636515617370605,-3.9100000858306885,1.9230151176452637]},{"componentType":5126,"type":"VEC3","byteOffset":0,"bufferView":33,"count":8,"max":[-2.52801513671875,-3.809999942779541,2.5169849395751953],"min":[-3.1219849586486816,-3.9100000858306885,1.9230151176452637]},{"componentType":5126,"type":"VEC3","byteOffset":0,"bufferView":34,"count":8,"max":[-1.586348533630371,-3.809999942779541,2.5169849395751953],"min":[-2.1803181171417236,-3.9100000858306885,1.9230151176452637]},{"componentType":5126,"type":"VEC3","byteOffset":0,"bufferView":35,"count":8,"max":[-0.6446818113327026,-3.809999942779541,2.5169849395751953],"min":[-1.2386515140533447,-3.9100000858306885,1.9230151176452637]},{"componentType":5126,"type":"VEC3","byteOffset":0,"bufferView":36,"count":8,"max":[0.29698485136032104,-3.809999942779541,2.5169849395751953],"min":[-0.29698485136032104,-3.9100000858306885,1.9230151176452637]},{"componentType":5126,"type":"VEC3","byteOffset":0,"bufferView":37,"count":8,"max":[1.2386515140533447,-3.809999942779541,2.5169849395751953],"min":[0.6446818113327026,-3.9100000858306885,1.9230151176452637]},{"componentType":5126,"type":"VEC3","byteOffset":0,"bufferView":38,"count":8,"max":[2.1803181171417236,-3.809999942779541,2.5169849395751953],"min":[1.586348533630371,-3.9100000858306885,1.9230151176452637]},{"componentType":5126,"type":"VEC3","byteOffset":0,"bufferView":39,"count":8,"max":[3.1219849586486816,-3.809999942779541,2.5169849395751953],"min":[2.52801513671875,-3.9100000858306885,1.9230151176452637]},{"componentType":5126,"type":"VEC3","byteOffset":0,"bufferView":40,"count":8,"max":[4.0636515617370605,-3.809999942779541,2.5169849395751953],"min":[3.469681739807129,-3.9100000858306885,1.9230151176452637]},{"componentType":5126,"type":"VEC3","byteOffset":0,"bufferView":41,"count":8,"max":[5.0053181648254395,-3.809999942779541,2.5169849395751953],"min":[4.411348342895508,-3.9100000858306885,1.9230151176452637]},{"componentType":5126,"type":"VEC3","byteOffset":0,"bufferView":42,"count":8,"max":[5.946984767913818,-3.809999942779541,2.5169849395751953],"min":[5.353014945983887,-3.9100000858306885,1.9230151176452637]},{"componentType":5126,"type":"VEC3","byteOffset":0,"bufferView":43,"count":8,"max":[-4.882181644439697,-3.809999942779541,3.0769848823547363],"min":[-5.476151466369629,-3.9100000858306885,2.4830150604248047]},{"componentType":5126,"type":"VEC3","byteOffset":0,"bufferView":44,"count":8,"max":[-3.9405150413513184,-3.809999942779541,3.0769848823547363],"min":[-4.53448486328125,-3.9100000858306885,2.4830150604248047]},{"componentType":5126,"type":"VEC3","byteOffset":0,"bufferView":45,"count":8,"max":[-2.9988484382629395,-3.809999942779541,3.0769848823547363],"min":[-3.592818260192871,-3.9100000858306885,2.4830150604248047]},{"componentType":5126,"type":"VEC3","byteOffset":0,"bufferView":46,"count":8,"max":[-2.0571818351745605,-3.809999942779541,3.0769848823547363],"min":[-2.651151418685913,-3.9100000858306885,2.4830150604248047]},{"componentType":5126,"type":"VEC3","byteOffset":0,"bufferView":47,"count":8,"max":[-1.115515112876892,-3.809999942779541,3.0769848823547363],"min":[-1.7094848155975342,-3.9100000858306885,2.4830150604248047]},{"componentType":5126,"type":"VEC3","byteOffset":0,"bufferView":48,"count":8,"max":[-0.1738484799861908,-3.809999942779541,3.0769848823547363],"min":[-0.7678181529045105,-3.9100000858306885,2.4830150604248047]},{"componentType":5126,"type":"VEC3","byteOffset":0,"bufferView":49,"count":8,"max":[0.7678181529045105,-3.809999942779541,3.0769848823547363],"min":[0.1738484799861908,-3.9100000858306885,2.4830150604248047]},{"componentType":5126,"type":"VEC3","byteOffset":0,"bufferView":50,"count":8,"max":[1.7094848155975342,-3.809999942779541,3.0769848823547363],"min":[1.115515112876892,-3.9100000858306885,2.4830150604248047]},{"componentType":5126,"type":"VEC3","byteOffset":0,"bufferView":51,"count":8,"max":[2.651151418685913,-3.809999942779541,3.0769848823547363],"min":[2.0571818351745605,-3.9100000858306885,2.4830150604248047]},{"componentType":5126,"type":"VEC3","byteOffset":0,"bufferView":52,"count":8,"max":[3.592818260192871,-3.809999942779541,3.0769848823547363],"min":[2.9988484382629395,-3.9100000858306885,2.4830150604248047]},{"componentType":5126,"type":"VEC3","byteOffset":0,"bufferView":53,"count":8,"max":[4.53448486328125,-3.809999942779541,3.0769848823547363],"min":[3.9405150413513184,-3.9100000858306885,2.4830150604248047]},{"componentType":5126,"type":"VEC3","byteOffset":0,"bufferView":54,"count":8,"max":[5.476151466369629,-3.809999942779541,3.0769848823547363],"min":[4.882181644439697,-3.9100000858306885,2.4830150604248047]},{"componentType":5126,"type":"VEC3","byteOffset":0,"bufferView":55,"count":8,"max":[-5.353014945983887,-3.809999942779541,3.6369848251342773],"min":[-5.946984767913818,-3.9100000858306885,3.043015241622925]},{"componentType":5126,"type":"VEC3","byteOffset":0,"bufferView":56,"count":8,"max":[-4.411348342895508,-3.809999942779541,3.6369848251342773],"min":[-5.0053181648254395,-3.9100000858306885,3.043015241622925]},{"componentType":5126,"type":"VEC3","byteOffset":0,"bufferView":57,"count":8,"max":[-3.469681739807129,-3.809999942779541,3.6369848251342773],"min":[-4.0636515617370605,-3.9100000858306885,3.043015241622925]},{"componentType":5126,"type":"VEC3","byteOffset":0,"bufferView":58,"count":8,"max":[-2.52801513671875,-3.809999942779541,3.6369848251342773],"min":[-3.1219849586486816,-3.9100000858306885,3.043015241622925]},{"componentType":5126,"type":"VEC3","byteOffset":0,"bufferView":59,"count":8,"max":[-1.586348533630371,-3.809999942779541,3.6369848251342773],"min":[-2.1803181171417236,-3.9100000858306885,3.043015241622925]},{"componentType":5126,"type":"VEC3","byteOffset":0,"bufferView":60,"count":8,"max":[-0.6446818113327026,-3.809999942779541,3.6369848251342773],"min":[-1.2386515140533447,-3.9100000858306885,3.043015241622925]},{"componentType":5126,"type":"VEC3","byteOffset":0,"bufferView":61,"count":8,"max":[0.29698485136032104,-3.809999942779541,3.6369848251342773],"min":[-0.29698485136032104,-3.9100000858306885,3.043015241622925]},{"componentType":5126,"type":"VEC3","byteOffset":0,"bufferView":62,"count":8,"max":[1.2386515140533447,-3.809999942779541,3.6369848251342773],"min":[0.6446818113327026,-3.9100000858306885,3.043015241622925]},{"componentType":5126,"type":"VEC3","byteOffset":0,"bufferView":63,"count":8,"max":[2.1803181171417236,-3.809999942779541,3.6369848251342773],"min":[1.586348533630371,-3.9100000858306885,3.043015241622925]},{"componentType":5126,"type":"VEC3","byteOffset":0,"bufferView":64,"count":8,"max":[3.1219849586486816,-3.809999942779541,3.6369848251342773],"min":[2.52801513671875,-3.9100000858306885,3.043015241622925]},{"componentType":5126,"type":"VEC3","byteOffset":0,"bufferView":65,"count":8,"max":[4.0636515617370605,-3.809999942779541,3.6369848251342773],"min":[3.469681739807129,-3.9100000858306885,3.043015241622925]},{"componentType":5126,"type":"VEC3","byteOffset":0,"bufferView":66,"count":8,"max":[5.0053181648254395,-3.809999942779541,3.6369848251342773],"min":[4.411348342895508,-3.9100000858306885,3.043015241622925]},{"componentType":5126,"type":"VEC3","byteOffset":0,"bufferView":67,"count":8,"max":[5.946984767913818,-3.809999942779541,3.6369848251342773],"min":[5.353014945983887,-3.9100000858306885,3.043015241622925]},{"componentType":5126,"type":"VEC3","byteOffset":0,"bufferView":68,"count":8,"max":[-5.010000228881836,-3.799999952316284,6.925000190734863],"min":[-5.139999866485596,-3.9600000381469727,5.375]},{"componentType":5126,"type":"VEC3","byteOffset":0,"bufferView":69,"count":8,"max":[-4.059999942779541,-3.799999952316284,6.925000190734863],"min":[-4.190000057220459,-3.9600000381469727,5.375]},{"componentType":5126,"type":"VEC3","byteOffset":0,"bufferView":70,"count":8,"max":[-4.059999942779541,-3.799999952316284,6.989999771118164],"min":[-5.139999866485596,-3.9600000381469727,6.860000133514404]},{"componentType":5126,"type":"VEC3","byteOffset":0,"bufferView":71,"count":8,"max":[-4.059999942779541,-3.799999952316284,5.440000057220459],"min":[-5.139999866485596,-3.9600000381469727,5.309999942779541]},{"componentType":5126,"type":"VEC3","byteOffset":0,"bufferView":72,"count":8,"max":[-4.150000095367432,-3.9000000953674316,7.199999809265137],"min":[-5.050000190734863,-4.019999980926514,7.099999904632568]},{"componentType":5126,"type":"VEC3","byteOffset":0,"bufferView":73,"count":8,"max":[-2.7100000381469727,-3.799999952316284,6.925000190734863],"min":[-2.8399999141693115,-3.9600000381469727,5.375]},{"componentType":5126,"type":"VEC3","byteOffset":0,"bufferView":74,"count":8,"max":[-1.7599999904632568,-3.799999952316284,6.925000190734863],"min":[-1.8899999856948853,-3.9600000381469727,5.375]},{"componentType":5126,"type":"VEC3","byteOffset":0,"bufferView":75,"count":8,"max":[-1.7599999904632568,-3.799999952316284,6.989999771118164],"min":[-2.8399999141693115,-3.9600000381469727,6.860000133514404]},{"componentType":5126,"type":"VEC3","byteOffset":0,"bufferView":76,"count":8,"max":[-1.7599999904632568,-3.799999952316284,5.440000057220459],"min":[-2.8399999141693115,-3.9600000381469727,5.309999942779541]},{"componentType":5126,"type":"VEC3","byteOffset":0,"bufferView":77,"count":8,"max":[-1.850000023841858,-3.9000000953674316,7.199999809265137],"min":[-2.75,-4.019999980926514,7.099999904632568]},{"componentType":5126,"type":"VEC3","byteOffset":0,"bufferView":78,"count":8,"max":[-0.4099999964237213,-3.799999952316284,6.925000190734863],"min":[-0.5400000214576721,-3.9600000381469727,5.375]},{"componentType":5126,"type":"VEC3","byteOffset":0,"bufferView":79,"count":8,"max":[0.5400000214576721,-3.799999952316284,6.925000190734863],"min":[0.4099999964237213,-3.9600000381469727,5.375]},{"componentType":5126,"type":"VEC3","byteOffset":0,"bufferView":80,"count":8,"max":[0.5400000214576721,-3.799999952316284,6.989999771118164],"min":[-0.5400000214576721,-3.9600000381469727,6.860000133514404]},{"componentType":5126,"type":"VEC3","byteOffset":0,"bufferView":81,"count":8,"max":[0.5400000214576721,-3.799999952316284,5.440000057220459],"min":[-0.5400000214576721,-3.9600000381469727,5.309999942779541]},{"componentType":5126,"type":"VEC3","byteOffset":0,"bufferView":82,"count":8,"max":[0.44999998807907104,-3.9000000953674316,7.199999809265137],"min":[-0.44999998807907104,-4.019999980926514,7.099999904632568]},{"componentType":5126,"type":"VEC3","byteOffset":0,"bufferView":83,"count":8,"max":[1.8899999856948853,-3.799999952316284,6.925000190734863],"min":[1.7599999904632568,-3.9600000381469727,5.375]},{"componentType":5126,"type":"VEC3","byteOffset":0,"bufferView":84,"count":8,"max":[2.8399999141693115,-3.799999952316284,6.925000190734863],"min":[2.7100000381469727,-3.9600000381469727,5.375]},{"componentType":5126,"type":"VEC3","byteOffset":0,"bufferView":85,"count":8,"max":[2.8399999141693115,-3.799999952316284,6.989999771118164],"min":[1.7599999904632568,-3.9600000381469727,6.860000133514404]},{"componentType":5126,"type":"VEC3","byteOffset":0,"bufferView":86,"count":8,"max":[2.8399999141693115,-3.799999952316284,5.440000057220459],"min":[1.7599999904632568,-3.9600000381469727,5.309999942779541]},{"componentType":5126,"type":"VEC3","byteOffset":0,"bufferView":87,"count":8,"max":[2.75,-3.9000000953674316,7.199999809265137],"min":[1.850000023841858,-4.019999980926514,7.099999904632568]},{"componentType":5126,"type":"VEC3","byteOffset":0,"bufferView":88,"count":8,"max":[4.190000057220459,-3.799999952316284,6.925000190734863],"min":[4.059999942779541,-3.9600000381469727,5.375]},{"componentType":5126,"type":"VEC3","byteOffset":0,"bufferView":89,"count":8,"max":[5.139999866485596,-3.799999952316284,6.925000190734863],"min":[5.010000228881836,-3.9600000381469727,5.375]},{"componentType":5126,"type":"VEC3","byteOffset":0,"bufferView":90,"count":8,"max":[5.139999866485596,-3.799999952316284,6.989999771118164],"min":[4.059999942779541,-3.9600000381469727,6.860000133514404]},{"componentType":5126,"type":"VEC3","byteOffset":0,"bufferView":91,"count":8,"max":[5.139999866485596,-3.799999952316284,5.440000057220459],"min":[4.059999942779541,-3.9600000381469727,5.309999942779541]},{"componentType":5126,"type":"VEC3","byteOffset":0,"bufferView":92,"count":8,"max":[5.050000190734863,-3.9000000953674316,7.199999809265137],"min":[4.150000095367432,-4.019999980926514,7.099999904632568]},{"componentType":5126,"type":"VEC3","byteOffset":0,"bufferView":93,"count":8,"max":[4.849999904632568,3.299999952316284,10.800000190734863],"min":[-4.849999904632568,-3.299999952316284,7.800000190734863]},{"componentType":5126,"type":"VEC3","byteOffset":0,"bufferView":94,"count":8,"max":[-4.010000228881836,-3.299999952316284,10.024999618530273],"min":[-4.139999866485596,-3.4200000762939453,8.675000190734863]},{"componentType":5126,"type":"VEC3","byteOffset":0,"bufferView":95,"count":8,"max":[-3.259999990463257,-3.299999952316284,10.024999618530273],"min":[-3.390000104904175,-3.4200000762939453,8.675000190734863]},{"componentType":5126,"type":"VEC3","byteOffset":0,"bufferView":96,"count":8,"max":[-3.259999990463257,-3.299999952316284,10.09000015258789],"min":[-4.139999866485596,-3.4200000762939453,9.960000038146973]},{"componentType":5126,"type":"VEC3","byteOffset":0,"bufferView":97,"count":8,"max":[-3.259999990463257,-3.299999952316284,8.739999771118164],"min":[-4.139999866485596,-3.4200000762939453,8.609999656677246]},{"componentType":5126,"type":"VEC3","byteOffset":0,"bufferView":98,"count":8,"max":[-2.1600000858306885,-3.299999952316284,10.024999618530273],"min":[-2.2899999618530273,-3.4200000762939453,8.675000190734863]},{"componentType":5126,"type":"VEC3","byteOffset":0,"bufferView":99,"count":8,"max":[-1.409999966621399,-3.299999952316284,10.024999618530273],"min":[-1.5399999618530273,-3.4200000762939453,8.675000190734863]},{"componentType":5126,"type":"VEC3","byteOffset":0,"bufferView":100,"count":8,"max":[-1.409999966621399,-3.299999952316284,10.09000015258789],"min":[-2.2899999618530273,-3.4200000762939453,9.960000038146973]},{"componentType":5126,"type":"VEC3","byteOffset":0,"bufferView":101,"count":8,"max":[-1.409999966621399,-3.299999952316284,8.739999771118164],"min":[-2.2899999618530273,-3.4200000762939453,8.609999656677246]},{"componentType":5126,"type":"VEC3","byteOffset":0,"bufferView":102,"count":8,"max":[-0.3100000023841858,-3.299999952316284,10.024999618530273],"min":[-0.4399999976158142,-3.4200000762939453,8.675000190734863]},{"componentType":5126,"type":"VEC3","byteOffset":0,"bufferView":103,"count":8,"max":[0.4399999976158142,-3.299999952316284,10.024999618530273],"min":[0.3100000023841858,-3.4200000762939453,8.675000190734863]},{"componentType":5126,"type":"VEC3","byteOffset":0,"bufferView":104,"count":8,"max":[0.4399999976158142,-3.299999952316284,10.09000015258789],"min":[-0.4399999976158142,-3.4200000762939453,9.960000038146973]},{"componentType":5126,"type":"VEC3","byteOffset":0,"bufferView":105,"count":8,"max":[0.4399999976158142,-3.299999952316284,8.739999771118164],"min":[-0.4399999976158142,-3.4200000762939453,8.609999656677246]},{"componentType":5126,"type":"VEC3","byteOffset":0,"bufferView":106,"count":8,"max":[1.5399999618530273,-3.299999952316284,10.024999618530273],"min":[1.409999966621399,-3.4200000762939453,8.675000190734863]},{"componentType":5126,"type":"VEC3","byteOffset":0,"bufferView":107,"count":8,"max":[2.2899999618530273,-3.299999952316284,10.024999618530273],"min":[2.1600000858306885,-3.4200000762939453,8.675000190734863]},{"componentType":5126,"type":"VEC3","byteOffset":0,"bufferView":108,"count":8,"max":[2.2899999618530273,-3.299999952316284,10.09000015258789],"min":[1.409999966621399,-3.4200000762939453,9.960000038146973]},{"componentType":5126,"type":"VEC3","byteOffset":0,"bufferView":109,"count":8,"max":[2.2899999618530273,-3.299999952316284,8.739999771118164],"min":[1.409999966621399,-3.4200000762939453,8.609999656677246]},{"componentType":5126,"type":"VEC3","byteOffset":0,"bufferView":110,"count":8,"max":[3.390000104904175,-3.299999952316284,10.024999618530273],"min":[3.259999990463257,-3.4200000762939453,8.675000190734863]},{"componentType":5126,"type":"VEC3","byteOffset":0,"bufferView":111,"count":8,"max":[4.139999866485596,-3.299999952316284,10.024999618530273],"min":[4.010000228881836,-3.4200000762939453,8.675000190734863]},{"componentType":5126,"type":"VEC3","byteOffset":0,"bufferView":112,"count":8,"max":[4.139999866485596,-3.299999952316284,10.09000015258789],"min":[3.259999990463257,-3.4200000762939453,9.960000038146973]},{"componentType":5126,"type":"VEC3","byteOffset":0,"bufferView":113,"count":8,"max":[4.139999866485596,-3.299999952316284,8.739999771118164],"min":[3.259999990463257,-3.4200000762939453,8.609999656677246]},{"componentType":5125,"type":"SCALAR","bufferView":114,"count":30,"max":[7],"min":[0]},{"componentType":5126,"type":"VEC3","byteOffset":0,"bufferView":115,"count":8,"max":[5.050000190734863,3.5,12.350000381469727],"min":[-5.050000190734863,-3.5,10.800000190734863]},{"componentType":5125,"type":"SCALAR","bufferView":116,"count":144,"max":[25],"min":[0]},{"componentType":5126,"type":"VEC3","byteOffset":0,"bufferView":117,"count":26,"max":[-1.2200000286102295,1.0800000429153442,12.975000381469727],"min":[-1.5800000429153442,0.7200000286102295,11.925000190734863]},{"componentType":5121,"normalized":true,"type":"VEC4","byteOffset":0,"bufferView":118,"count":26,"max":[171,124,78,255],"min":[171,124,78,255]},{"componentType":5126,"type":"VEC3","byteOffset":0,"bufferView":119,"count":26,"max":[1.3799999952316284,1.0800000429153442,12.975000381469727],"min":[1.0199999809265137,0.7200000286102295,11.925000190734863]},{"componentType":5125,"type":"SCALAR","bufferView":120,"count":684,"max":[115],"min":[0]},{"componentType":5126,"type":"VEC3","byteOffset":0,"bufferView":121,"count":116,"max":[-5.449999809265137,-2.950000047683716,4.099999904632568],"min":[-8.550000190734863,-3.75,2.549999952316284]},{"componentType":5121,"normalized":true,"type":"VEC4","byteOffset":0,"bufferView":122,"count":116,"max":[171,124,78,255],"min":[171,124,78,255]},{"componentType":5126,"type":"VEC3","byteOffset":0,"bufferView":123,"count":8,"max":[-8.079999923706055,-2.950000047683716,2.549999952316284],"min":[-8.550000190734863,-3.75,0.0]},{"componentType":5126,"type":"VEC3","byteOffset":0,"bufferView":124,"count":8,"max":[-5.449999809265137,-2.950000047683716,2.549999952316284],"min":[-5.920000076293945,-3.75,0.0]},{"componentType":5126,"type":"VEC3","byteOffset":0,"bufferView":125,"count":8,"max":[-5.099999904632568,-1.5499999523162842,5.449999809265137],"min":[-8.899999618530273,-4.25,3.25]},{"componentType":5125,"type":"SCALAR","bufferView":126,"count":24,"max":[5],"min":[0]},{"componentType":5126,"type":"VEC3","byteOffset":0,"bufferView":127,"count":6,"max":[2.0999999046325684,1.5499999523162842,6.650000095367432],"min":[-2.0999999046325684,-1.5499999523162842,5.449999809265137]},{"componentType":5121,"normalized":true,"type":"VEC4","byteOffset":0,"bufferView":128,"count":6,"max":[171,124,78,255],"min":[171,124,78,255]},{"componentType":5126,"type":"VEC3","byteOffset":0,"bufferView":129,"count":8,"max":[-10.020000457763672,-1.350000023841858,0.23999999463558197],"min":[-10.5,-4.050000190734863,0.0]},{"componentType":5126,"type":"VEC3","byteOffset":0,"bufferView":130,"count":8,"max":[-9.539999961853027,-1.350000023841858,0.47999998927116394],"min":[-10.020000457763672,-4.050000190734863,0.0]},{"componentType":5126,"type":"VEC3","byteOffset":0,"bufferView":131,"count":8,"max":[-9.0600004196167,-1.350000023841858,0.7200000286102295],"min":[-9.539999961853027,-4.050000190734863,0.0]},{"componentType":5126,"type":"VEC3","byteOffset":0,"bufferView":132,"count":8,"max":[-8.579999923706055,-1.350000023841858,0.9599999785423279],"min":[-9.0600004196167,-4.050000190734863,0.0]},{"componentType":5126,"type":"VEC3","byteOffset":0,"bufferView":133,"count":8,"max":[-8.100000381469727,-1.350000023841858,1.2000000476837158],"min":[-8.579999923706055,-4.050000190734863,0.0]},{"componentType":5126,"type":"VEC3","byteOffset":0,"bufferView":134,"count":8,"max":[-7.619999885559082,-1.350000023841858,1.440000057220459],"min":[-8.100000381469727,-4.050000190734863,0.0]},{"componentType":5126,"type":"VEC3","byteOffset":0,"bufferView":135,"count":8,"max":[-7.139999866485596,-1.350000023841858,1.6799999475479126],"min":[-7.619999885559082,-4.050000190734863,0.0]},{"componentType":5126,"type":"VEC3","byteOffset":0,"bufferView":136,"count":8,"max":[-6.659999847412109,-1.350000023841858,1.9199999570846558],"min":[-7.139999866485596,-4.050000190734863,0.0]},{"componentType":5126,"type":"VEC3","byteOffset":0,"bufferView":137,"count":8,"max":[8.199999809265137,2.4000000953674316,4.800000190734863],"min":[6.199999809265137,-1.399999976158142,0.0]},{"componentType":5121,"normalized":true,"type":"VEC4","byteOffset":0,"bufferView":138,"count":8,"max":[108,126,145,150],"min":[108,126,145,150]}],"meshes":[{"name":"documented__lower_masonry","extras":{"shape":"box","extents":[12.6,7.6,4.3]},"primitives":[{"attributes":{"POSITION":1,"COLOR_0":2},"indices":0,"mode":4}]},{"name":"documented__stone_chamber","extras":{"shape":"box","extents":[12.6,7.6,3.5]},"primitives":[{"attributes":{"POSITION":3,"COLOR_0":2},"indices":0,"mode":4}]},{"name":"reconstructed__rust_0_0","extras":{"shape":"box","extents":[0.42,0.1,0.42]},"primitives":[{"attributes":{"POSITION":4,"COLOR_0":5},"indices":0,"mode":4}]},{"name":"reconstructed__rust_0_1","extras":{"shape":"box","extents":[0.42,0.1,0.42]},"primitives":[{"attributes":{"POSITION":6,"COLOR_0":5},"indices":0,"mode":4}]},{"name":"reconstructed__rust_0_2","extras":{"shape":"box","extents":[0.42,0.1,0.42]},"primitives":[{"attributes":{"POSITION":7,"COLOR_0":5},"indices":0,"mode":4}]},{"name":"reconstructed__rust_0_3","extras":{"shape":"box","extents":[0.42,0.1,0.42]},"primitives":[{"attributes":{"POSITION":8,"COLOR_0":5},"indices":0,"mode":4}]},{"name":"reconstructed__rust_0_4","extras":{"shape":"box","extents":[0.42,0.1,0.42]},"primitives":[{"attributes":{"POSITION":9,"COLOR_0":5},"indices":0,"mode":4}]},{"name":"reconstructed__rust_0_5","extras":{"shape":"box","extents":[0.42,0.1,0.42]},"primitives":[{"attributes":{"POSITION":10,"COLOR_0":5},"indices":0,"mode":4}]},{"name":"reconstructed__rust_0_6","extras":{"shape":"box","extents":[0.42,0.1,0.42]},"primitives":[{"attributes":{"POSITION":11,"COLOR_0":5},"indices":0,"mode":4}]},{"name":"reconstructed__rust_0_7","extras":{"shape":"box","extents":[0.42,0.1,0.42]},"primitives":[{"attributes":{"POSITION":12,"COLOR_0":5},"indices":0,"mode":4}]},{"name":"reconstructed__rust_0_8","extras":{"shape":"box","extents":[0.42,0.1,0.42]},"primitives":[{"attributes":{"POSITION":13,"COLOR_0":5},"indices":0,"mode":4}]},{"name":"reconstructed__rust_0_9","extras":{"shape":"box","extents":[0.42,0.1,0.42]},"primitives":[{"attributes":{"POSITION":14,"COLOR_0":5},"indices":0,"mode":4}]},{"name":"reconstructed__rust_0_10","extras":{"shape":"box","extents":[0.42,0.1,0.42]},"primitives":[{"attributes":{"POSITION":15,"COLOR_0":5},"indices":0,"mode":4}]},{"name":"reconstructed__rust_0_11","extras":{"shape":"box","extents":[0.42,0.1,0.42]},"primitives":[{"attributes":{"POSITION":16,"COLOR_0":5},"indices":0,"mode":4}]},{"name":"reconstructed__rust_0_12","extras":{"shape":"box","extents":[0.42,0.1,0.42]},"primitives":[{"attributes":{"POSITION":17,"COLOR_0":5},"indices":0,"mode":4}]},{"name":"reconstructed__rust_1_0","extras":{"shape":"box","extents":[0.42,0.1,0.42]},"primitives":[{"attributes":{"POSITION":18,"COLOR_0":5},"indices":0,"mode":4}]},{"name":"reconstructed__rust_1_1","extras":{"shape":"box","extents":[0.42,0.1,0.42]},"primitives":[{"attributes":{"POSITION":19,"COLOR_0":5},"indices":0,"mode":4}]},{"name":"reconstructed__rust_1_2","extras":{"shape":"box","extents":[0.42,0.1,0.42]},"primitives":[{"attributes":{"POSITION":20,"COLOR_0":5},"indices":0,"mode":4}]},{"name":"reconstructed__rust_1_3","extras":{"shape":"box","extents":[0.42,0.1,0.42]},"primitives":[{"attributes":{"POSITION":21,"COLOR_0":5},"indices":0,"mode":4}]},{"name":"reconstructed__rust_1_4","extras":{"shape":"box","extents":[0.42,0.1,0.42]},"primitives":[{"attributes":{"POSITION":22,"COLOR_0":5},"indices":0,"mode":4}]},{"name":"reconstructed__rust_1_5","extras":{"shape":"box","extents":[0.42,0.1,0.42]},"primitives":[{"attributes":{"POSITION":23,"COLOR_0":5},"indices":0,"mode":4}]},{"name":"reconstructed__rust_1_6","extras":{"shape":"box","extents":[0.42,0.1,0.42]},"primitives":[{"attributes":{"POSITION":24,"COLOR_0":5},"indices":0,"mode":4}]},{"name":"reconstructed__rust_1_7","extras":{"shape":"box","extents":[0.42,0.1,0.42]},"primitives":[{"attributes":{"POSITION":25,"COLOR_0":5},"indices":0,"mode":4}]},{"name":"reconstructed__rust_1_8","extras":{"shape":"box","extents":[0.42,0.1,0.42]},"primitives":[{"attributes":{"POSITION":26,"COLOR_0":5},"indices":0,"mode":4}]},{"name":"reconstructed__rust_1_9","extras":{"shape":"box","extents":[0.42,0.1,0.42]},"primitives":[{"attributes":{"POSITION":27,"COLOR_0":5},"indices":0,"mode":4}]},{"name":"reconstructed__rust_1_10","extras":{"shape":"box","extents":[0.42,0.1,0.42]},"primitives":[{"attributes":{"POSITION":28,"COLOR_0":5},"indices":0,"mode":4}]},{"name":"reconstructed__rust_1_11","extras":{"shape":"box","extents":[0.42,0.1,0.42]},"primitives":[{"attributes":{"POSITION":29,"COLOR_0":5},"indices":0,"mode":4}]},{"name":"reconstructed__rust_2_0","extras":{"shape":"box","extents":[0.42,0.1,0.42]},"primitives":[{"attributes":{"POSITION":30,"COLOR_0":5},"indices":0,"mode":4}]},{"name":"reconstructed__rust_2_1","extras":{"shape":"box","extents":[0.42,0.1,0.42]},"primitives":[{"attributes":{"POSITION":31,"COLOR_0":5},"indices":0,"mode":4}]},{"name":"reconstructed__rust_2_2","extras":{"shape":"box","extents":[0.42,0.1,0.42]},"primitives":[{"attributes":{"POSITION":32,"COLOR_0":5},"indices":0,"mode":4}]},{"name":"reconstructed__rust_2_3","extras":{"shape":"box","extents":[0.42,0.1,0.42]},"primitives":[{"attributes":{"POSITION":33,"COLOR_0":5},"indices":0,"mode":4}]},{"name":"reconstructed__rust_2_4","extras":{"shape":"box","extents":[0.42,0.1,0.42]},"primitives":[{"attributes":{"POSITION":34,"COLOR_0":5},"indices":0,"mode":4}]},{"name":"reconstructed__rust_2_5","extras":{"shape":"box","extents":[0.42,0.1,0.42]},"primitives":[{"attributes":{"POSITION":35,"COLOR_0":5},"indices":0,"mode":4}]},{"name":"reconstructed__rust_2_6","extras":{"shape":"box","extents":[0.42,0.1,0.42]},"primitives":[{"attributes":{"POSITION":36,"COLOR_0":5},"indices":0,"mode":4}]},{"name":"reconstructed__rust_2_7","extras":{"shape":"box","extents":[0.42,0.1,0.42]},"primitives":[{"attributes":{"POSITION":37,"COLOR_0":5},"indices":0,"mode":4}]},{"name":"reconstructed__rust_2_8","extras":{"shape":"box","extents":[0.42,0.1,0.42]},"primitives":[{"attributes":{"POSITION":38,"COLOR_0":5},"indices":0,"mode":4}]},{"name":"reconstructed__rust_2_9","extras":{"shape":"box","extents":[0.42,0.1,0.42]},"primitives":[{"attributes":{"POSITION":39,"COLOR_0":5},"indices":0,"mode":4}]},{"name":"reconstructed__rust_2_10","extras":{"shape":"box","extents":[0.42,0.1,0.42]},"primitives":[{"attributes":{"POSITION":40,"COLOR_0":5},"indices":0,"mode":4}]},{"name":"reconstructed__rust_2_11","extras":{"shape":"box","extents":[0.42,0.1,0.42]},"primitives":[{"attributes":{"POSITION":41,"COLOR_0":5},"indices":0,"mode":4}]},{"name":"reconstructed__rust_2_12","extras":{"shape":"box","extents":[0.42,0.1,0.42]},"primitives":[{"attributes":{"POSITION":42,"COLOR_0":5},"indices":0,"mode":4}]},{"name":"reconstructed__rust_3_0","extras":{"shape":"box","extents":[0.42,0.1,0.42]},"primitives":[{"attributes":{"POSITION":43,"COLOR_0":5},"indices":0,"mode":4}]},{"name":"reconstructed__rust_3_1","extras":{"shape":"box","extents":[0.42,0.1,0.42]},"primitives":[{"attributes":{"POSITION":44,"COLOR_0":5},"indices":0,"mode":4}]},{"name":"reconstructed__rust_3_2","extras":{"shape":"box","extents":[0.42,0.1,0.42]},"primitives":[{"attributes":{"POSITION":45,"COLOR_0":5},"indices":0,"mode":4}]},{"name":"reconstructed__rust_3_3","extras":{"shape":"box","extents":[0.42,0.1,0.42]},"primitives":[{"attributes":{"POSITION":46,"COLOR_0":5},"indices":0,"mode":4}]},{"name":"reconstructed__rust_3_4","extras":{"shape":"box","extents":[0.42,0.1,0.42]},"primitives":[{"attributes":{"POSITION":47,"COLOR_0":5},"indices":0,"mode":4}]},{"name":"reconstructed__rust_3_5","extras":{"shape":"box","extents":[0.42,0.1,0.42]},"primitives":[{"attributes":{"POSITION":48,"COLOR_0":5},"indices":0,"mode":4}]},{"name":"reconstructed__rust_3_6","extras":{"shape":"box","extents":[0.42,0.1,0.42]},"primitives":[{"attributes":{"POSITION":49,"COLOR_0":5},"indices":0,"mode":4}]},{"name":"reconstructed__rust_3_7","extras":{"shape":"box","extents":[0.42,0.1,0.42]},"primitives":[{"attributes":{"POSITION":50,"COLOR_0":5},"indices":0,"mode":4}]},{"name":"reconstructed__rust_3_8","extras":{"shape":"box","extents":[0.42,0.1,0.42]},"primitives":[{"attributes":{"POSITION":51,"COLOR_0":5},"indices":0,"mode":4}]},{"name":"reconstructed__rust_3_9","extras":{"shape":"box","extents":[0.42,0.1,0.42]},"primitives":[{"attributes":{"POSITION":52,"COLOR_0":5},"indices":0,"mode":4}]},{"name":"reconstructed__rust_3_10","extras":{"shape":"box","extents":[0.42,0.1,0.42]},"primitives":[{"attributes":{"POSITION":53,"COLOR_0":5},"indices":0,"mode":4}]},{"name":"reconstructed__rust_3_11","extras":{"shape":"box","extents":[0.42,0.1,0.42]},"primitives":[{"attributes":{"POSITION":54,"COLOR_0":5},"indices":0,"mode":4}]},{"name":"reconstructed__rust_4_0","extras":{"shape":"box","extents":[0.42,0.1,0.42]},"primitives":[{"attributes":{"POSITION":55,"COLOR_0":5},"indices":0,"mode":4}]},{"name":"reconstructed__rust_4_1","extras":{"shape":"box","extents":[0.42,0.1,0.42]},"primitives":[{"attributes":{"POSITION":56,"COLOR_0":5},"indices":0,"mode":4}]},{"name":"reconstructed__rust_4_2","extras":{"shape":"box","extents":[0.42,0.1,0.42]},"primitives":[{"attributes":{"POSITION":57,"COLOR_0":5},"indices":0,"mode":4}]},{"name":"reconstructed__rust_4_3","extras":{"shape":"box","extents":[0.42,0.1,0.42]},"primitives":[{"attributes":{"POSITION":58,"COLOR_0":5},"indices":0,"mode":4}]},{"name":"reconstructed__rust_4_4","extras":{"shape":"box","extents":[0.42,0.1,0.42]},"primitives":[{"attributes":{"POSITION":59,"COLOR_0":5},"indices":0,"mode":4}]},{"name":"reconstructed__rust_4_5","extras":{"shape":"box","extents":[0.42,0.1,0.42]},"primitives":[{"attributes":{"POSITION":60,"COLOR_0":5},"indices":0,"mode":4}]},{"name":"reconstructed__rust_4_6","extras":{"shape":"box","extents":[0.42,0.1,0.42]},"primitives":[{"attributes":{"POSITION":61,"COLOR_0":5},"indices":0,"mode":4}]},{"name":"reconstructed__rust_4_7","extras":{"shape":"box","extents":[0.42,0.1,0.42]},"primitives":[{"attributes":{"POSITION":62,"COLOR_0":5},"indices":0,"mode":4}]},{"name":"reconstructed__rust_4_8","extras":{"shape":"box","extents":[0.42,0.1,0.42]},"primitives":[{"attributes":{"POSITION":63,"COLOR_0":5},"indices":0,"mode":4}]},{"name":"reconstructed__rust_4_9","extras":{"shape":"box","extents":[0.42,0.1,0.42]},"primitives":[{"attributes":{"POSITION":64,"COLOR_0":5},"indices":0,"mode":4}]},{"name":"reconstructed__rust_4_10","extras":{"shape":"box","extents":[0.42,0.1,0.42]},"primitives":[{"attributes":{"POSITION":65,"COLOR_0":5},"indices":0,"mode":4}]},{"name":"reconstructed__rust_4_11","extras":{"shape":"box","extents":[0.42,0.1,0.42]},"primitives":[{"attributes":{"POSITION":66,"COLOR_0":5},"indices":0,"mode":4}]},{"name":"reconstructed__rust_4_12","extras":{"shape":"box","extents":[0.42,0.1,0.42]},"primitives":[{"attributes":{"POSITION":67,"COLOR_0":5},"indices":0,"mode":4}]},{"name":"reconstructed__white_stone_window_0_left","extras":{"shape":"box","extents":[0.13,0.16,1.55]},"primitives":[{"attributes":{"POSITION":68,"COLOR_0":5},"indices":0,"mode":4}]},{"name":"reconstructed__white_stone_window_0_right","extras":{"shape":"box","extents":[0.13,0.16,1.55]},"primitives":[{"attributes":{"POSITION":69,"COLOR_0":5},"indices":0,"mode":4}]},{"name":"reconstructed__white_stone_window_0_top","extras":{"shape":"box","extents":[1.08,0.16,0.13]},"primitives":[{"attributes":{"POSITION":70,"COLOR_0":5},"indices":0,"mode":4}]},{"name":"reconstructed__white_stone_window_0_bottom","extras":{"shape":"box","extents":[1.08,0.16,0.13]},"primitives":[{"attributes":{"POSITION":71,"COLOR_0":5},"indices":0,"mode":4}]},{"name":"reconstructed__pediment_0","extras":{"shape":"box","extents":[0.9,0.12,0.1]},"primitives":[{"attributes":{"POSITION":72,"COLOR_0":5},"indices":0,"mode":4}]},{"name":"reconstructed__white_stone_window_1_left","extras":{"shape":"box","extents":[0.13,0.16,1.55]},"primitives":[{"attributes":{"POSITION":73,"COLOR_0":5},"indices":0,"mode":4}]},{"name":"reconstructed__white_stone_window_1_right","extras":{"shape":"box","extents":[0.13,0.16,1.55]},"primitives":[{"attributes":{"POSITION":74,"COLOR_0":5},"indices":0,"mode":4}]},{"name":"reconstructed__white_stone_window_1_top","extras":{"shape":"box","extents":[1.08,0.16,0.13]},"primitives":[{"attributes":{"POSITION":75,"COLOR_0":5},"indices":0,"mode":4}]},{"name":"reconstructed__white_stone_window_1_bottom","extras":{"shape":"box","extents":[1.08,0.16,0.13]},"primitives":[{"attributes":{"POSITION":76,"COLOR_0":5},"indices":0,"mode":4}]},{"name":"reconstructed__pediment_1","extras":{"shape":"box","extents":[0.9,0.12,0.1]},"primitives":[{"attributes":{"POSITION":77,"COLOR_0":5},"indices":0,"mode":4}]},{"name":"reconstructed__white_stone_window_2_left","extras":{"shape":"box","extents":[0.13,0.16,1.55]},"primitives":[{"attributes":{"POSITION":78,"COLOR_0":5},"indices":0,"mode":4}]},{"name":"reconstructed__white_stone_window_2_right","extras":{"shape":"box","extents":[0.13,0.16,1.55]},"primitives":[{"attributes":{"POSITION":79,"COLOR_0":5},"indices":0,"mode":4}]},{"name":"reconstructed__white_stone_window_2_top","extras":{"shape":"box","extents":[1.08,0.16,0.13]},"primitives":[{"attributes":{"POSITION":80,"COLOR_0":5},"indices":0,"mode":4}]},{"name":"reconstructed__white_stone_window_2_bottom","extras":{"shape":"box","extents":[1.08,0.16,0.13]},"primitives":[{"attributes":{"POSITION":81,"COLOR_0":5},"indices":0,"mode":4}]},{"name":"reconstructed__pediment_2","extras":{"shape":"box","extents":[0.9,0.12,0.1]},"primitives":[{"attributes":{"POSITION":82,"COLOR_0":5},"indices":0,"mode":4}]},{"name":"reconstructed__white_stone_window_3_left","extras":{"shape":"box","extents":[0.13,0.16,1.55]},"primitives":[{"attributes":{"POSITION":83,"COLOR_0":5},"indices":0,"mode":4}]},{"name":"reconstructed__white_stone_window_3_right","extras":{"shape":"box","extents":[0.13,0.16,1.55]},"primitives":[{"attributes":{"POSITION":84,"COLOR_0":5},"indices":0,"mode":4}]},{"name":"reconstructed__white_stone_window_3_top","extras":{"shape":"box","extents":[1.08,0.16,0.13]},"primitives":[{"attributes":{"POSITION":85,"COLOR_0":5},"indices":0,"mode":4}]},{"name":"reconstructed__white_stone_window_3_bottom","extras":{"shape":"box","extents":[1.08,0.16,0.13]},"primitives":[{"attributes":{"POSITION":86,"COLOR_0":5},"indices":0,"mode":4}]},{"name":"reconstructed__pediment_3","extras":{"shape":"box","extents":[0.9,0.12,0.1]},"primitives":[{"attributes":{"POSITION":87,"COLOR_0":5},"indices":0,"mode":4}]},{"name":"reconstructed__white_stone_window_4_left","extras":{"shape":"box","extents":[0.13,0.16,1.55]},"primitives":[{"attributes":{"POSITION":88,"COLOR_0":5},"indices":0,"mode":4}]},{"name":"reconstructed__white_stone_window_4_right","extras":{"shape":"box","extents":[0.13,0.16,1.55]},"primitives":[{"attributes":{"POSITION":89,"COLOR_0":5},"indices":0,"mode":4}]},{"name":"reconstructed__white_stone_window_4_top","extras":{"shape":"box","extents":[1.08,0.16,0.13]},"primitives":[{"attributes":{"POSITION":90,"COLOR_0":5},"indices":0,"mode":4}]},{"name":"reconstructed__white_stone_window_4_bottom","extras":{"shape":"box","extents":[1.08,0.16,0.13]},"primitives":[{"attributes":{"POSITION":91,"COLOR_0":5},"indices":0,"mode":4}]},{"name":"reconstructed__pediment_4","extras":{"shape":"box","extents":[0.9,0.12,0.1]},"primitives":[{"attributes":{"POSITION":92,"COLOR_0":5},"indices":0,"mode":4}]},{"name":"reconstructed__timber_terem","extras":{"shape":"box","extents":[9.7,6.6,3.0]},"primitives":[{"attributes":{"POSITION":93,"COLOR_0":5},"indices":0,"mode":4}]},{"name":"reconstructed__terem_window_0_left","extras":{"shape":"box","extents":[0.13,0.12,1.35]},"primitives":[{"attributes":{"POSITION":94,"COLOR_0":5},"indices":0,"mode":4}]},{"name":"reconstructed__terem_window_0_right","extras":{"shape":"box","extents":[0.13,0.12,1.35]},"primitives":[{"attributes":{"POSITION":95,"COLOR_0":5},"indices":0,"mode":4}]},{"name":"reconstructed__terem_window_0_top","extras":{"shape":"box","extents":[0.88,0.12,0.13]},"primitives":[{"attributes":{"POSITION":96,"COLOR_0":5},"indices":0,"mode":4}]},{"name":"reconstructed__terem_window_0_bottom","extras":{"shape":"box","extents":[0.88,0.12,0.13]},"primitives":[{"attributes":{"POSITION":97,"COLOR_0":5},"indices":0,"mode":4}]},{"name":"reconstructed__terem_window_1_left","extras":{"shape":"box","extents":[0.13,0.12,1.35]},"primitives":[{"attributes":{"POSITION":98,"COLOR_0":5},"indices":0,"mode":4}]},{"name":"reconstructed__terem_window_1_right","extras":{"shape":"box","extents":[0.13,0.12,1.35]},"primitives":[{"attributes":{"POSITION":99,"COLOR_0":5},"indices":0,"mode":4}]},{"name":"reconstructed__terem_window_1_top","extras":{"shape":"box","extents":[0.88,0.12,0.13]},"primitives":[{"attributes":{"POSITION":100,"COLOR_0":5},"indices":0,"mode":4}]},{"name":"reconstructed__terem_window_1_bottom","extras":{"shape":"box","extents":[0.88,0.12,0.13]},"primitives":[{"attributes":{"POSITION":101,"COLOR_0":5},"indices":0,"mode":4}]},{"name":"reconstructed__terem_window_2_left","extras":{"shape":"box","extents":[0.13,0.12,1.35]},"primitives":[{"attributes":{"POSITION":102,"COLOR_0":5},"indices":0,"mode":4}]},{"name":"reconstructed__terem_window_2_right","extras":{"shape":"box","extents":[0.13,0.12,1.35]},"primitives":[{"attributes":{"POSITION":103,"COLOR_0":5},"indices":0,"mode":4}]},{"name":"reconstructed__terem_window_2_top","extras":{"shape":"box","extents":[0.88,0.12,0.13]},"primitives":[{"attributes":{"POSITION":104,"COLOR_0":5},"indices":0,"mode":4}]},{"name":"reconstructed__terem_window_2_bottom","extras":{"shape":"box","extents":[0.88,0.12,0.13]},"primitives":[{"attributes":{"POSITION":105,"COLOR_0":5},"indices":0,"mode":4}]},{"name":"reconstructed__terem_window_3_left","extras":{"shape":"box","extents":[0.13,0.12,1.35]},"primitives":[{"attributes":{"POSITION":106,"COLOR_0":5},"indices":0,"mode":4}]},{"name":"reconstructed__terem_window_3_right","extras":{"shape":"box","extents":[0.13,0.12,1.35]},"primitives":[{"attributes":{"POSITION":107,"COLOR_0":5},"indices":0,"mode":4}]},{"name":"reconstructed__terem_window_3_top","extras":{"shape":"box","extents":[0.88,0.12,0.13]},"primitives":[{"attributes":{"POSITION":108,"COLOR_0":5},"indices":0,"mode":4}]},{"name":"reconstructed__terem_window_3_bottom","extras":{"shape":"box","extents":[0.88,0.12,0.13]},"primitives":[{"attributes":{"POSITION":109,"COLOR_0":5},"indices":0,"mode":4}]},{"name":"reconstructed__terem_window_4_left","extras":{"shape":"box","extents":[0.13,0.12,1.35]},"primitives":[{"attributes":{"POSITION":110,"COLOR_0":5},"indices":0,"mode":4}]},{"name":"reconstructed__terem_window_4_right","extras":{"shape":"box","extents":[0.13,0.12,1.35]},"primitives":[{"attributes":{"POSITION":111,"COLOR_0":5},"indices":0,"mode":4}]},{"name":"reconstructed__terem_window_4_top","extras":{"shape":"box","extents":[0.88,0.12,0.13]},"primitives":[{"attributes":{"POSITION":112,"COLOR_0":5},"indices":0,"mode":4}]},{"name":"reconstructed__terem_window_4_bottom","extras":{"shape":"box","extents":[0.88,0.12,0.13]},"primitives":[{"attributes":{"POSITION":113,"COLOR_0":5},"indices":0,"mode":4}]},{"name":"reconstructed__terem_roof","extras":{"processed":true},"primitives":[{"attributes":{"POSITION":115,"COLOR_0":5},"indices":114,"mode":4}]},{"name":"reconstructed__chimney_0","extras":{"shape":"cylinder","height":1.05,"radius":0.18,"processed":true},"primitives":[{"attributes":{"POSITION":117,"COLOR_0":118},"indices":116,"mode":4}]},{"name":"reconstructed__chimney_1","extras":{"shape":"cylinder","height":1.05,"radius":0.18,"processed":true},"primitives":[{"attributes":{"POSITION":119,"COLOR_0":118},"indices":116,"mode":4}]},{"name":"reconstructed__porch_arch","extras":{"processed":true},"primitives":[{"attributes":{"POSITION":121,"COLOR_0":122},"indices":120,"mode":4}]},{"name":"reconstructed__porch_arch_leg_left","extras":{"shape":"box","extents":[0.47,0.8,2.55]},"primitives":[{"attributes":{"POSITION":123,"COLOR_0":5},"indices":0,"mode":4}]},{"name":"reconstructed__porch_arch_leg_right","extras":{"shape":"box","extents":[0.47,0.8,2.55]},"primitives":[{"attributes":{"POSITION":124,"COLOR_0":5},"indices":0,"mode":4}]},{"name":"reconstructed__porch_upper","extras":{"shape":"box","extents":[3.8,2.7,2.2]},"primitives":[{"attributes":{"POSITION":125,"COLOR_0":5},"indices":0,"mode":4}]},{"name":"reconstructed__porch_roof","extras":{"processed":true},"primitives":[{"attributes":{"POSITION":127,"COLOR_0":128},"indices":126,"mode":4}]},{"name":"reconstructed__grand_stair_0","extras":{"shape":"box","extents":[0.48,2.7,0.24]},"primitives":[{"attributes":{"POSITION":129,"COLOR_0":5},"indices":0,"mode":4}]},{"name":"reconstructed__grand_stair_1","extras":{"shape":"box","extents":[0.48,2.7,0.48]},"primitives":[{"attributes":{"POSITION":130,"COLOR_0":5},"indices":0,"mode":4}]},{"name":"reconstructed__grand_stair_2","extras":{"shape":"box","extents":[0.48,2.7,0.72]},"primitives":[{"attributes":{"POSITION":131,"COLOR_0":5},"indices":0,"mode":4}]},{"name":"reconstructed__grand_stair_3","extras":{"shape":"box","extents":[0.48,2.7,0.96]},"primitives":[{"attributes":{"POSITION":132,"COLOR_0":5},"indices":0,"mode":4}]},{"name":"reconstructed__grand_stair_4","extras":{"shape":"box","extents":[0.48,2.7,1.2]},"primitives":[{"attributes":{"POSITION":133,"COLOR_0":5},"indices":0,"mode":4}]},{"name":"reconstructed__grand_stair_5","extras":{"shape":"box","extents":[0.48,2.7,1.44]},"primitives":[{"attributes":{"POSITION":134,"COLOR_0":5},"indices":0,"mode":4}]},{"name":"reconstructed__grand_stair_6","extras":{"shape":"box","extents":[0.48,2.7,1.68]},"primitives":[{"attributes":{"POSITION":135,"COLOR_0":5},"indices":0,"mode":4}]},{"name":"reconstructed__grand_stair_7","extras":{"shape":"box","extents":[0.48,2.7,1.92]},"primitives":[{"attributes":{"POSITION":136,"COLOR_0":5},"indices":0,"mode":4}]},{"name":"hypothesis__side_mass_pending_survey","extras":{"shape":"box","extents":[2.0,3.8,4.8]},"primitives":[{"attributes":{"POSITION":137,"COLOR_0":138},"indices":0,"mode":4}]}],"nodes":[{"name":"world","children":[1,2,3,4,5,6,7,8,9,10,11,12,13,14,15,16,17,18,19,20,21,22,23,24,25,26,27,28,29,30,31,32,33,34,35,36,37,38,39,40,41,42,43,44,45,46,47,48,49,50,51,52,53,54,55,56,57,58,59,60,61,62,63,64,65,66,67,68,69,70,71,72,73,74,75,76,77,78,79,80,81,82,83,84,85,86,87,88,89,90,91,92,93,94,95,96,97,98,99,100,101,102,103,104,105,106,107,108,109,110,111,112,113,114,115,116,117,118,119,120,121,122,123,124,125,126,127,128]},{"name":"documented__lower_masonry","mesh":0},{"name":"documented__stone_chamber","mesh":1},{"name":"reconstructed__rust_0_0","mesh":2},{"name":"reconstructed__rust_0_1","mesh":3},{"name":"reconstructed__rust_0_2","mesh":4},{"name":"reconstructed__rust_0_3","mesh":5},{"name":"reconstructed__rust_0_4","mesh":6},{"name":"reconstructed__rust_0_5","mesh":7},{"name":"reconstructed__rust_0_6","mesh":8},{"name":"reconstructed__rust_0_7","mesh":9},{"name":"reconstructed__rust_0_8","mesh":10},{"name":"reconstructed__rust_0_9","mesh":11},{"name":"reconstructed__rust_0_10","mesh":12},{"name":"reconstructed__rust_0_11","mesh":13},{"name":"reconstructed__rust_0_12","mesh":14},{"name":"reconstructed__rust_1_0","mesh":15},{"name":"reconstructed__rust_1_1","mesh":16},{"name":"reconstructed__rust_1_2","mesh":17},{"name":"reconstructed__rust_1_3","mesh":18},{"name":"reconstructed__rust_1_4","mesh":19},{"name":"reconstructed__rust_1_5","mesh":20},{"name":"reconstructed__rust_1_6","mesh":21},{"name":"reconstructed__rust_1_7","mesh":22},{"name":"reconstructed__rust_1_8","mesh":23},{"name":"reconstructed__rust_1_9","mesh":24},{"name":"reconstructed__rust_1_10","mesh":25},{"name":"reconstructed__rust_1_11","mesh":26},{"name":"reconstructed__rust_2_0","mesh":27},{"name":"reconstructed__rust_2_1","mesh":28},{"name":"reconstructed__rust_2_2","mesh":29},{"name":"reconstructed__rust_2_3","mesh":30},{"name":"reconstructed__rust_2_4","mesh":31},{"name":"reconstructed__rust_2_5","mesh":32},{"name":"reconstructed__rust_2_6","mesh":33},{"name":"reconstructed__rust_2_7","mesh":34},{"name":"reconstructed__rust_2_8","mesh":35},{"name":"reconstructed__rust_2_9","mesh":36},{"name":"reconstructed__rust_2_10","mesh":37},{"name":"reconstructed__rust_2_11","mesh":38},{"name":"reconstructed__rust_2_12","mesh":39},{"name":"reconstructed__rust_3_0","mesh":40},{"name":"reconstructed__rust_3_1","mesh":41},{"name":"reconstructed__rust_3_2","mesh":42},{"name":"reconstructed__rust_3_3","mesh":43},{"name":"reconstructed__rust_3_4","mesh":44},{"name":"reconstructed__rust_3_5","mesh":45},{"name":"reconstructed__rust_3_6","mesh":46},{"name":"reconstructed__rust_3_7","mesh":47},{"name":"reconstructed__rust_3_8","mesh":48},{"name":"reconstructed__rust_3_9","mesh":49},{"name":"reconstructed__rust_3_10","mesh":50},{"name":"reconstructed__rust_3_11","mesh":51},{"name":"reconstructed__rust_4_0","mesh":52},{"name":"reconstructed__rust_4_1","mesh":53},{"name":"reconstructed__rust_4_2","mesh":54},{"name":"reconstructed__rust_4_3","mesh":55},{"name":"reconstructed__rust_4_4","mesh":56},{"name":"reconstructed__rust_4_5","mesh":57},{"name":"reconstructed__rust_4_6","mesh":58},{"name":"reconstructed__rust_4_7","mesh":59},{"name":"reconstructed__rust_4_8","mesh":60},{"name":"reconstructed__rust_4_9","mesh":61},{"name":"reconstructed__rust_4_10","mesh":62},{"name":"reconstructed__rust_4_11","mesh":63},{"name":"reconstructed__rust_4_12","mesh":64},{"name":"reconstructed__white_stone_window_0_left","mesh":65},{"name":"reconstructed__white_stone_window_0_right","mesh":66},{"name":"reconstructed__white_stone_window_0_top","mesh":67},{"name":"reconstructed__white_stone_window_0_bottom","mesh":68},{"name":"reconstructed__pediment_0","mesh":69},{"name":"reconstructed__white_stone_window_1_left","mesh":70},{"name":"reconstructed__white_stone_window_1_right","mesh":71},{"name":"reconstructed__white_stone_window_1_top","mesh":72},{"name":"reconstructed__white_stone_window_1_bottom","mesh":73},{"name":"reconstructed__pediment_1","mesh":74},{"name":"reconstructed__white_stone_window_2_left","mesh":75},{"name":"reconstructed__white_stone_window_2_right","mesh":76},{"name":"reconstructed__white_stone_window_2_top","mesh":77},{"name":"reconstructed__white_stone_window_2_bottom","mesh":78},{"name":"reconstructed__pediment_2","mesh":79},{"name":"reconstructed__white_stone_window_3_left","mesh":80},{"name":"reconstructed__white_stone_window_3_right","mesh":81},{"name":"reconstructed__white_stone_window_3_top","mesh":82},{"name":"reconstructed__white_stone_window_3_bottom","mesh":83},{"name":"reconstructed__pediment_3","mesh":84},{"name":"reconstructed__white_stone_window_4_left","mesh":85},{"name":"reconstructed__white_stone_window_4_right","mesh":86},{"name":"reconstructed__white_stone_window_4_top","mesh":87},{"name":"reconstructed__white_stone_window_4_bottom","mesh":88},{"name":"reconstructed__pediment_4","mesh":89},{"name":"reconstructed__timber_terem","mesh":90},{"name":"reconstructed__terem_window_0_left","mesh":91},{"name":"reconstructed__terem_window_0_right","mesh":92},{"name":"reconstructed__terem_window_0_top","mesh":93},{"name":"reconstructed__terem_window_0_bottom","mesh":94},{"name":"reconstructed__terem_window_1_left","mesh":95},{"name":"reconstructed__terem_window_1_right","mesh":96},{"name":"reconstructed__terem_window_1_top","mesh":97},{"name":"reconstructed__terem_window_1_bottom","mesh":98},{"name":"reconstructed__terem_window_2_left","mesh":99},{"name":"reconstructed__terem_window_2_right","mesh":100},{"name":"reconstructed__terem_window_2_top","mesh":101},{"name":"reconstructed__terem_window_2_bottom","mesh":102},{"name":"reconstructed__terem_window_3_left","mesh":103},{"name":"reconstructed__terem_window_3_right","mesh":104},{"name":"reconstructed__terem_window_3_top","mesh":105},{"name":"reconstructed__terem_window_3_bottom","mesh":106},{"name":"reconstructed__terem_window_4_left","mesh":107},{"name":"reconstructed__terem_window_4_right","mesh":108},{"name":"reconstructed__terem_window_4_top","mesh":109},{"name":"reconstructed__terem_window_4_bottom","mesh":110},{"name":"reconstructed__terem_roof","mesh":111},{"name":"reconstructed__chimney_0","mesh":112},{"name":"reconstructed__chimney_1","mesh":113},{"name":"reconstructed__porch_arch","mesh":114},{"name":"reconstructed__porch_arch_leg_left","mesh":115},{"name":"reconstructed__porch_arch_leg_right","mesh":116},{"name":"reconstructed__porch_upper","mesh":117},{"name":"reconstructed__porch_roof","mesh":118},{"name":"reconstructed__grand_stair_0","mesh":119},{"name":"reconstructed__grand_stair_1","mesh":120},{"name":"reconstructed__grand_stair_2","mesh":121},{"name":"reconstructed__grand_stair_3","mesh":122},{"name":"reconstructed__grand_stair_4","mesh":123},{"name":"reconstructed__grand_stair_5","mesh":124},{"name":"reconstructed__grand_stair_6","mesh":125},{"name":"reconstructed__grand_stair_7","mesh":126},{"name":"hypothesis__side_mass_pending_survey","mesh":127}],"buffers":[{"uri":"data:application/octet-stream;base64,","byteLength":18352}],"bufferViews":[{"buffer":0,"byteOffset":0,"byteLength":144},{"buffer":0,"byteOffset":144,"byteLength":96},{"buffer":0,"byteOffset":240,"byteLength":32},{"buffer":0,"byteOffset":272,"byteLength":96},{"buffer":0,"byteOffset":368,"byteLength":96},{"buffer":0,"byteOffset":464,"byteLength":32},{"buffer":0,"byteOffset":496,"byteLength":96},{"buffer":0,"byteOffset":592,"byteLength":96},{"buffer":0,"byteOffset":688,"byteLength":96},{"buffer":0,"byteOffset":784,"byteLength":96},{"buffer":0,"byteOffset":880,"byteLength":96},{"buffer":0,"byteOffset":976,"byteLength":96},{"buffer":0,"byteOffset":1072,"byteLength":96},{"buffer":0,"byteOffset":1168,"byteLength":96},{"buffer":0,"byteOffset":1264,"byteLength":96},{"buffer":0,"byteOffset":1360,"byteLength":96},{"buffer":0,"byteOffset":1456,"byteLength":96},{"buffer":0,"byteOffset":1552,"byteLength":96},{"buffer":0,"byteOffset":1648,"byteLength":96},{"buffer":0,"byteOffset":1744,"byteLength":96},{"buffer":0,"byteOffset":1840,"byteLength":96},{"buffer":0,"byteOffset":1936,"byteLength":96},{"buffer":0,"byteOffset":2032,"byteLength":96},{"buffer":0,"byteOffset":2128,"byteLength":96},{"buffer":0,"byteOffset":2224,"byteLength":96},{"buffer":0,"byteOffset":2320,"byteLength":96},{"buffer":0,"byteOffset":2416,"byteLength":96},{"buffer":0,"byteOffset":2512,"byteLength":96},{"buffer":0,"byteOffset":2608,"byteLength":96},{"buffer":0,"byteOffset":2704,"byteLength":96},{"buffer":0,"byteOffset":2800,"byteLength":96},{"buffer":0,"byteOffset":2896,"byteLength":96},{"buffer":0,"byteOffset":2992,"byteLength":96},{"buffer":0,"byteOffset":3088,"byteLength":96},{"buffer":0,"byteOffset":3184,"byteLength":96},{"buffer":0,"byteOffset":3280,"byteLength":96},{"buffer":0,"byteOffset":3376,"byteLength":96},{"buffer":0,"byteOffset":3472,"byteLength":96},{"buffer":0,"byteOffset":3568,"byteLength":96},{"buffer":0,"byteOffset":3664,"byteLength":96},{"buffer":0,"byteOffset":3760,"byteLength":96},{"buffer":0,"byteOffset":3856,"byteLength":96},{"buffer":0,"byteOffset":3952,"byteLength":96},{"buffer":0,"byteOffset":4048,"byteLength":96},{"buffer":0,"byteOffset":4144,"byteLength":96},{"buffer":0,"byteOffset":4240,"byteLength":96},{"buffer":0,"byteOffset":4336,"byteLength":96},{"buffer":0,"byteOffset":4432,"byteLength":96},{"buffer":0,"byteOffset":4528,"byteLength":96},{"buffer":0,"byteOffset":4624,"byteLength":96},{"buffer":0,"byteOffset":4720,"byteLength":96},{"buffer":0,"byteOffset":4816,"byteLength":96},{"buffer":0,"byteOffset":4912,"byteLength":96},{"buffer":0,"byteOffset":5008,"byteLength":96},{"buffer":0,"byteOffset":5104,"byteLength":96},{"buffer":0,"byteOffset":5200,"byteLength":96},{"buffer":0,"byteOffset":5296,"byteLength":96},{"buffer":0,"byteOffset":5392,"byteLength":96},{"buffer":0,"byteOffset":5488,"byteLength":96},{"buffer":0,"byteOffset":5584,"byteLength":96},{"buffer":0,"byteOffset":5680,"byteLength":96},{"buffer":0,"byteOffset":5776,"byteLength":96},{"buffer":0,"byteOffset":5872,"byteLength":96},{"buffer":0,"byteOffset":5968,"byteLength":96},{"buffer":0,"byteOffset":6064,"byteLength":96},{"buffer":0,"byteOffset":6160,"byteLength":96},{"buffer":0,"byteOffset":6256,"byteLength":96},{"buffer":0,"byteOffset":6352,"byteLength":96},{"buffer":0,"byteOffset":6448,"byteLength":96},{"buffer":0,"byteOffset":6544,"byteLength":96},{"buffer":0,"byteOffset":6640,"byteLength":96},{"buffer":0,"byteOffset":6736,"byteLength":96},{"buffer":0,"byteOffset":6832,"byteLength":96},{"buffer":0,"byteOffset":6928,"byteLength":96},{"buffer":0,"byteOffset":7024,"byteLength":96},{"buffer":0,"byteOffset":7120,"byteLength":96},{"buffer":0,"byteOffset":7216,"byteLength":96},{"buffer":0,"byteOffset":7312,"byteLength":96},{"buffer":0,"byteOffset":7408,"byteLength":96},{"buffer":0,"byteOffset":7504,"byteLength":96},{"buffer":0,"byteOffset":7600,"byteLength":96},{"buffer":0,"byteOffset":7696,"byteLength":96},{"buffer":0,"byteOffset":7792,"byteLength":96},{"buffer":0,"byteOffset":7888,"byteLength":96},{"buffer":0,"byteOffset":7984,"byteLength":96},{"buffer":0,"byteOffset":8080,"byteLength":96},{"buffer":0,"byteOffset":8176,"byteLength":96},{"buffer":0,"byteOffset":8272,"byteLength":96},{"buffer":0,"byteOffset":8368,"byteLength":96},{"buffer":0,"byteOffset":8464,"byteLength":96},{"buffer":0,"byteOffset":8560,"byteLength":96},{"buffer":0,"byteOffset":8656,"byteLength":96},{"buffer":0,"byteOffset":8752,"byteLength":96},{"buffer":0,"byteOffset":8848,"byteLength":96},{"buffer":0,"byteOffset":8944,"byteLength":96},{"buffer":0,"byteOffset":9040,"byteLength":96},{"buffer":0,"byteOffset":9136,"byteLength":96},{"buffer":0,"byteOffset":9232,"byteLength":96},{"buffer":0,"byteOffset":9328,"byteLength":96},{"buffer":0,"byteOffset":9424,"byteLength":96},{"buffer":0,"byteOffset":9520,"byteLength":96},{"buffer":0,"byteOffset":9616,"byteLength":96},{"buffer":0,"byteOffset":9712,"byteLength":96},{"buffer":0,"byteOffset":9808,"byteLength":96},{"buffer":0,"byteOffset":9904,"byteLength":96},{"buffer":0,"byteOffset":10000,"byteLength":96},{"buffer":0,"byteOffset":10096,"byteLength":96},{"buffer":0,"byteOffset":10192,"byteLength":96},{"buffer":0,"byteOffset":10288,"byteLength":96},{"buffer":0,"byteOffset":10384,"byteLength":96},{"buffer":0,"byteOffset":10480,"byteLength":96},{"buffer":0,"byteOffset":10576,"byteLength":96},{"buffer":0,"byteOffset":10672,"byteLength":96},{"buffer":0,"byteOffset":10768,"byteLength":96},{"buffer":0,"byteOffset":10864,"byteLength":120},{"buffer":0,"byteOffset":10984,"byteLength":96},{"buffer":0,"byteOffset":11080,"byteLength":576},{"buffer":0,"byteOffset":11656,"byteLength":312},{"buffer":0,"byteOffset":11968,"byteLength":104},{"buffer":0,"byteOffset":12072,"byteLength":312},{"buffer":0,"byteOffset":12384,"byteLength":2736},{"buffer":0,"byteOffset":15120,"byteLength":1392},{"buffer":0,"byteOffset":16512,"byteLength":464},{"buffer":0,"byteOffset":16976,"byteLength":96},{"buffer":0,"byteOffset":17072,"byteLength":96},{"buffer":0,"byteOffset":17168,"byteLength":96},{"buffer":0,"byteOffset":17264,"byteLength":96},{"buffer":0,"byteOffset":17360,"byteLength":72},{"buffer":0,"byteOffset":17432,"byteLength":24},{"buffer":0,"byteOffset":17456,"byteLength":96},{"buffer":0,"byteOffset":17552,"byteLength":96},{"buffer":0,"byteOffset":17648,"byteLength":96},{"buffer":0,"byteOffset":17744,"byteLength":96},{"buffer":0,"byteOffset":17840,"byteLength":96},{"buffer":0,"byteOffset":17936,"byteLength":96},{"buffer":0,"byteOffset":18032,"byteLength":96},{"buffer":0,"byteOffset":18128,"byteLength":96},{"buffer":0,"byteOffset":18224,"byteLength":96},{"buffer":0,"byteOffset":18320,"byteLength":32}]}