{"scene":0,"scenes":[{"nodes":[0],"extras":{"title":"Romanov Chambers 1857 research state v1","status":"production-candidate-not-field-certified","units":"meters","era":"1857-pre-restoration","scale_status":"provisional-pending-architectural-survey","evidence_layers":["documented","hypothesis"]}}],"asset":{"version":"2.0","generator":"https://github.com/mikedh/trimesh"},"accessors":[{"componentType":5125,"type":"SCALAR","bufferView":0,"count":36,"max":[7],"min":[0]},{"componentType":5126,"type":"VEC3","byteOffset":0,"bufferView":1,"count":8,"max":[6.300000190734863,3.799999952316284,4.300000190734863],"min":[-6.300000190734863,-3.799999952316284,0.0]},{"componentType":5121,"normalized":true,"type":"VEC4","byteOffset":0,"bufferView":2,"count":8,"max":[194,181,154,255],"min":[194,181,154,255]},{"componentType":5126,"type":"VEC3","byteOffset":0,"bufferView":3,"count":8,"max":[6.300000190734863,3.799999952316284,7.800000190734863],"min":[-6.300000190734863,-3.799999952316284,4.300000190734863]},{"componentType":5126,"type":"VEC3","byteOffset":0,"bufferView":4,"count":8,"max":[-5.210000038146973,-3.7799999713897705,6.875],"min":[-5.340000152587891,-3.940000057220459,5.425000190734863]},{"componentType":5126,"type":"VEC3","byteOffset":0,"bufferView":5,"count":8,"max":[-4.260000228881836,-3.7799999713897705,6.875],"min":[-4.389999866485596,-3.940000057220459,5.425000190734863]},{"componentType":5126,"type":"VEC3","byteOffset":0,"bufferView":6,"count":8,"max":[-4.260000228881836,-3.7799999713897705,6.940000057220459],"min":[-5.340000152587891,-3.940000057220459,6.809999942779541]},{"componentType":5126,"type":"VEC3","byteOffset":0,"bufferView":7,"count":8,"max":[-4.260000228881836,-3.7799999713897705,5.489999771118164],"min":[-5.340000152587891,-3.940000057220459,5.360000133514404]},{"componentType":5126,"type":"VEC3","byteOffset":0,"bufferView":8,"count":8,"max":[-3.2899999618530273,-3.7799999713897705,6.875],"min":[-3.4200000762939453,-3.940000057220459,5.425000190734863]},{"componentType":5126,"type":"VEC3","byteOffset":0,"bufferView":9,"count":8,"max":[-2.3399999141693115,-3.7799999713897705,6.875],"min":[-2.4700000286102295,-3.940000057220459,5.425000190734863]},{"componentType":5126,"type":"VEC3","byteOffset":0,"bufferView":10,"count":8,"max":[-2.3399999141693115,-3.7799999713897705,6.940000057220459],"min":[-3.4200000762939453,-3.940000057220459,6.809999942779541]},{"componentType":5126,"type":"VEC3","byteOffset":0,"bufferView":11,"count":8,"max":[-2.3399999141693115,-3.7799999713897705,5.489999771118164],"min":[-3.4200000762939453,-3.940000057220459,5.360000133514404]},{"componentType":5126,"type":"VEC3","byteOffset":0,"bufferView":12,"count":8,"max":[-1.3700000047683716,-3.7799999713897705,6.875],"min":[-1.5,-3.940000057220459,5.425000190734863]},{"componentType":5126,"type":"VEC3","byteOffset":0,"bufferView":13,"count":8,"max":[-0.41999998688697815,-3.7799999713897705,6.875],"min":[-0.550000011920929,-3.940000057220459,5.425000190734863]},{"componentType":5126,"type":"VEC3","byteOffset":0,"bufferView":14,"count":8,"max":[-0.41999998688697815,-3.7799999713897705,6.940000057220459],"min":[-1.5,-3.940000057220459,6.809999942779541]},{"componentType":5126,"type":"VEC3","byteOffset":0,"bufferView":15,"count":8,"max":[-0.41999998688697815,-3.7799999713897705,5.489999771118164],"min":[-1.5,-3.940000057220459,5.360000133514404]},{"componentType":5126,"type":"VEC3","byteOffset":0,"bufferView":16,"count":8,"max":[0.550000011920929,-3.7799999713897705,6.875],"min":[0.41999998688697815,-3.940000057220459,5.425000190734863]},{"componentType":5126,"type":"VEC3","byteOffset":0,"bufferView":17,"count":8,"max":[1.5,-3.7799999713897705,6.875],"min":[1.3700000047683716,-3.940000057220459,5.425000190734863]},{"componentType":5126,"type":"VEC3","byteOffset":0,"bufferView":18,"count":8,"max":[1.5,-3.7799999713897705,6.940000057220459],"min":[0.41999998688697815,-3.940000057220459,6.809999942779541]},{"componentType":5126,"type":"VEC3","byteOffset":0,"bufferView":19,"count":8,"max":[1.5,-3.7799999713897705,5.489999771118164],"min":[0.41999998688697815,-3.940000057220459,5.360000133514404]},{"componentType":5126,"type":"VEC3","byteOffset":0,"bufferView":20,"count":8,"max":[2.4700000286102295,-3.7799999713897705,6.875],"min":[2.3399999141693115,-3.940000057220459,5.425000190734863]},{"componentType":5126,"type":"VEC3","byteOffset":0,"bufferView":21,"count":8,"max":[3.4200000762939453,-3.7799999713897705,6.875],"min":[3.2899999618530273,-3.940000057220459,5.425000190734863]},{"componentType":5126,"type":"VEC3","byteOffset":0,"bufferView":22,"count":8,"max":[3.4200000762939453,-3.7799999713897705,6.940000057220459],"min":[2.3399999141693115,-3.940000057220459,6.809999942779541]},{"componentType":5126,"type":"VEC3","byteOffset":0,"bufferView":23,"count":8,"max":[3.4200000762939453,-3.7799999713897705,5.489999771118164],"min":[2.3399999141693115,-3.940000057220459,5.360000133514404]},{"componentType":5126,"type":"VEC3","byteOffset":0,"bufferView":24,"count":8,"max":[4.389999866485596,-3.7799999713897705,6.875],"min":[4.260000228881836,-3.940000057220459,5.425000190734863]},{"componentType":5126,"type":"VEC3","byteOffset":0,"bufferView":25,"count":8,"max":[5.340000152587891,-3.7799999713897705,6.875],"min":[5.210000038146973,-3.940000057220459,5.425000190734863]},{"componentType":5126,"type":"VEC3","byteOffset":0,"bufferView":26,"count":8,"max":[5.340000152587891,-3.7799999713897705,6.940000057220459],"min":[4.260000228881836,-3.940000057220459,6.809999942779541]},{"componentType":5126,"type":"VEC3","byteOffset":0,"bufferView":27,"count":8,"max":[5.340000152587891,-3.7799999713897705,5.489999771118164],"min":[4.260000228881836,-3.940000057220459,5.360000133514404]},{"componentType":5125,"type":"SCALAR","bufferView":28,"count":30,"max":[7],"min":[0]},{"componentType":5126,"type":"VEC3","byteOffset":0,"bufferView":29,"count":8,"max":[6.5,4.0,9.25],"min":[-6.5,-4.0,7.800000190734863]},{"componentType":5126,"type":"VEC3","byteOffset":0,"bufferView":30,"count":8,"max":[-2.509999990463257,-3.799999952316284,2.9749999046325684],"min":[-2.640000104904175,-3.9200000762939453,2.2249999046325684]},{"componentType":5126,"type":"VEC3","byteOffset":0,"bufferView":31,"count":8,"max":[-1.9600000381469727,-3.799999952316284,2.9749999046325684],"min":[-2.0899999141693115,-3.9200000762939453,2.2249999046325684]},{"componentType":5126,"type":"VEC3","byteOffset":0,"bufferView":32,"count":8,"max":[-1.9600000381469727,-3.799999952316284,3.0399999618530273],"min":[-2.640000104904175,-3.9200000762939453,2.9100000858306885]},{"componentType":5126,"type":"VEC3","byteOffset":0,"bufferView":33,"count":8,"max":[-1.9600000381469727,-3.799999952316284,2.2899999618530273],"min":[-2.640000104904175,-3.9200000762939453,2.1600000858306885]},{"componentType":5126,"type":"VEC3","byteOffset":0,"bufferView":34,"count":8,"max":[2.0899999141693115,-3.799999952316284,2.9749999046325684],"min":[1.9600000381469727,-3.9200000762939453,2.2249999046325684]},{"componentType":5126,"type":"VEC3","byteOffset":0,"bufferView":35,"count":8,"max":[2.640000104904175,-3.799999952316284,2.9749999046325684],"min":[2.509999990463257,-3.9200000762939453,2.2249999046325684]},{"componentType":5126,"type":"VEC3","byteOffset":0,"bufferView":36,"count":8,"max":[2.640000104904175,-3.799999952316284,3.0399999618530273],"min":[1.9600000381469727,-3.9200000762939453,2.9100000858306885]},{"componentType":5126,"type":"VEC3","byteOffset":0,"bufferView":37,"count":8,"max":[2.640000104904175,-3.799999952316284,2.2899999618530273],"min":[1.9600000381469727,-3.9200000762939453,2.1600000858306885]},{"componentType":5126,"type":"VEC3","byteOffset":0,"bufferView":38,"count":8,"max":[-5.900000095367432,2.0,3.200000047683716],"min":[-9.699999809265137,-2.799999952316284,0.0]},{"componentType":5121,"normalized":true,"type":"VEC4","byteOffset":0,"bufferView":39,"count":8,"max":[108,126,145,150],"min":[108,126,145,150]}],"meshes":[{"name":"documented__masonry_lower","extras":{"shape":"box","extents":[12.6,7.6,4.3]},"primitives":[{"attributes":{"POSITION":1,"COLOR_0":2},"indices":0,"mode":4}]},{"name":"documented__masonry_upper","extras":{"shape":"box","extents":[12.6,7.6,3.5]},"primitives":[{"attributes":{"POSITION":3,"COLOR_0":2},"indices":0,"mode":4}]},{"name":"documented__street_window_0_left","extras":{"shape":"box","extents":[0.13,0.16,1.45]},"primitives":[{"attributes":{"POSITION":4,"COLOR_0":2},"indices":0,"mode":4}]},{"name":"documented__street_window_0_right","extras":{"shape":"box","extents":[0.13,0.16,1.45]},"primitives":[{"attributes":{"POSITION":5,"COLOR_0":2},"indices":0,"mode":4}]},{"name":"documented__street_window_0_top","extras":{"shape":"box","extents":[1.08,0.16,0.13]},"primitives":[{"attributes":{"POSITION":6,"COLOR_0":2},"indices":0,"mode":4}]},{"name":"documented__street_window_0_bottom","extras":{"shape":"box","extents":[1.08,0.16,0.13]},"primitives":[{"attributes":{"POSITION":7,"COLOR_0":2},"indices":0,"mode":4}]},{"name":"documented__street_window_1_left","extras":{"shape":"box","extents":[0.13,0.16,1.45]},"primitives":[{"attributes":{"POSITION":8,"COLOR_0":2},"indices":0,"mode":4}]},{"name":"documented__street_window_1_right","extras":{"shape":"box","extents":[0.13,0.16,1.45]},"primitives":[{"attributes":{"POSITION":9,"COLOR_0":2},"indices":0,"mode":4}]},{"name":"documented__street_window_1_top","extras":{"shape":"box","extents":[1.08,0.16,0.13]},"primitives":[{"attributes":{"POSITION":10,"COLOR_0":2},"indices":0,"mode":4}]},{"name":"documented__street_window_1_bottom","extras":{"shape":"box","extents":[1.08,0.16,0.13]},"primitives":[{"attributes":{"POSITION":11,"COLOR_0":2},"indices":0,"mode":4}]},{"name":"documented__street_window_2_left","extras":{"shape":"box","extents":[0.13,0.16,1.45]},"primitives":[{"attributes":{"POSITION":12,"COLOR_0":2},"indices":0,"mode":4}]},{"name":"documented__street_window_2_right","extras":{"shape":"box","extents":[0.13,0.16,1.45]},"primitives":[{"attributes":{"POSITION":13,"COLOR_0":2},"indices":0,"mode":4}]},{"name":"documented__street_window_2_top","extras":{"shape":"box","extents":[1.08,0.16,0.13]},"primitives":[{"attributes":{"POSITION":14,"COLOR_0":2},"indices":0,"mode":4}]},{"name":"documented__street_window_2_bottom","extras":{"shape":"box","extents":[1.08,0.16,0.13]},"primitives":[{"attributes":{"POSITION":15,"COLOR_0":2},"indices":0,"mode":4}]},{"name":"documented__street_window_3_left","extras":{"shape":"box","extents":[0.13,0.16,1.45]},"primitives":[{"attributes":{"POSITION":16,"COLOR_0":2},"indices":0,"mode":4}]},{"name":"documented__street_window_3_right","extras":{"shape":"box","extents":[0.13,0.16,1.45]},"primitives":[{"attributes":{"POSITION":17,"COLOR_0":2},"indices":0,"mode":4}]},{"name":"documented__street_window_3_top","extras":{"shape":"box","extents":[1.08,0.16,0.13]},"primitives":[{"attributes":{"POSITION":18,"COLOR_0":2},"indices":0,"mode":4}]},{"name":"documented__street_window_3_bottom","extras":{"shape":"box","extents":[1.08,0.16,0.13]},"primitives":[{"attributes":{"POSITION":19,"COLOR_0":2},"indices":0,"mode":4}]},{"name":"documented__street_window_4_left","extras":{"shape":"box","extents":[0.13,0.16,1.45]},"primitives":[{"attributes":{"POSITION":20,"COLOR_0":2},"indices":0,"mode":4}]},{"name":"documented__street_window_4_right","extras":{"shape":"box","extents":[0.13,0.16,1.45]},"primitives":[{"attributes":{"POSITION":21,"COLOR_0":2},"indices":0,"mode":4}]},{"name":"documented__street_window_4_top","extras":{"shape":"box","extents":[1.08,0.16,0.13]},"primitives":[{"attributes":{"POSITION":22,"COLOR_0":2},"indices":0,"mode":4}]},{"name":"documented__street_window_4_bottom","extras":{"shape":"box","extents":[1.08,0.16,0.13]},"primitives":[{"attributes":{"POSITION":23,"COLOR_0":2},"indices":0,"mode":4}]},{"name":"documented__street_window_5_left","extras":{"shape":"box","extents":[0.13,0.16,1.45]},"primitives":[{"attributes":{"POSITION":24,"COLOR_0":2},"indices":0,"mode":4}]},{"name":"documented__street_window_5_right","extras":{"shape":"box","extents":[0.13,0.16,1.45]},"primitives":[{"attributes":{"POSITION":25,"COLOR_0":2},"indices":0,"mode":4}]},{"name":"documented__street_window_5_top","extras":{"shape":"box","extents":[1.08,0.16,0.13]},"primitives":[{"attributes":{"POSITION":26,"COLOR_0":2},"indices":0,"mode":4}]},{"name":"documented__street_window_5_bottom","extras":{"shape":"box","extents":[1.08,0.16,0.13]},"primitives":[{"attributes":{"POSITION":27,"COLOR_0":2},"indices":0,"mode":4}]},{"name":"documented__pre_restoration_roof","extras":{"processed":true},"primitives":[{"attributes":{"POSITION":29,"COLOR_0":2},"indices":28,"mode":4}]},{"name":"documented__lower_opening_0_left","extras":{"shape":"box","extents":[0.13,0.12,0.75]},"primitives":[{"attributes":{"POSITION":30,"COLOR_0":2},"indices":0,"mode":4}]},{"name":"documented__lower_opening_0_right","extras":{"shape":"box","extents":[0.13,0.12,0.75]},"primitives":[{"attributes":{"POSITION":31,"COLOR_0":2},"indices":0,"mode":4}]},{"name":"documented__lower_opening_0_top","extras":{"shape":"box","extents":[0.68,0.12,0.13]},"primitives":[{"attributes":{"POSITION":32,"COLOR_0":2},"indices":0,"mode":4}]},{"name":"documented__lower_opening_0_bottom","extras":{"shape":"box","extents":[0.68,0.12,0.13]},"primitives":[{"attributes":{"POSITION":33,"COLOR_0":2},"indices":0,"mode":4}]},{"name":"documented__lower_opening_1_left","extras":{"shape":"box","extents":[0.13,0.12,0.75]},"primitives":[{"attributes":{"POSITION":34,"COLOR_0":2},"indices":0,"mode":4}]},{"name":"documented__lower_opening_1_right","extras":{"shape":"box","extents":[0.13,0.12,0.75]},"primitives":[{"attributes":{"POSITION":35,"COLOR_0":2},"indices":0,"mode":4}]},{"name":"documented__lower_opening_1_top","extras":{"shape":"box","extents":[0.68,0.12,0.13]},"primitives":[{"attributes":{"POSITION":36,"COLOR_0":2},"indices":0,"mode":4}]},{"name":"documented__lower_opening_1_bottom","extras":{"shape":"box","extents":[0.68,0.12,0.13]},"primitives":[{"attributes":{"POSITION":37,"COLOR_0":2},"indices":0,"mode":4}]},{"name":"hypothesis__west_service_mass","extras":{"shape":"box","extents":[3.8,4.8,3.2]},"primitives":[{"attributes":{"POSITION":38,"COLOR_0":39},"indices":0,"mode":4}]}],"nodes":[{"name":"world","children":[1,2,3,4,5,6,7,8,9,10,11,12,13,14,15,16,17,18,19,20,21,22,23,24,25,26,27,28,29,30,31,32,33,34,35,36]},{"name":"documented__masonry_lower","mesh":0},{"name":"documented__masonry_upper","mesh":1},{"name":"documented__street_window_0_left","mesh":2},{"name":"documented__street_window_0_right","mesh":3},{"name":"documented__street_window_0_top","mesh":4},{"name":"documented__street_window_0_bottom","mesh":5},{"name":"documented__street_window_1_left","mesh":6},{"name":"documented__street_window_1_right","mesh":7},{"name":"documented__street_window_1_top","mesh":8},{"name":"documented__street_window_1_bottom","mesh":9},{"name":"documented__street_window_2_left","mesh":10},{"name":"documented__street_window_2_right","mesh":11},{"name":"documented__street_window_2_top","mesh":12},{"name":"documented__street_window_2_bottom","mesh":13},{"name":"documented__street_window_3_left","mesh":14},{"name":"documented__street_window_3_right","mesh":15},{"name":"documented__street_window_3_top","mesh":16},{"name":"documented__street_window_3_bottom","mesh":17},{"name":"documented__street_window_4_left","mesh":18},{"name":"documented__street_window_4_right","mesh":19},{"name":"documented__street_window_4_top","mesh":20},{"name":"documented__street_window_4_bottom","mesh":21},{"name":"documented__street_window_5_left","mesh":22},{"name":"documented__street_window_5_right","mesh":23},{"name":"documented__street_window_5_top","mesh":24},{"name":"documented__street_window_5_bottom","mesh":25},{"name":"documented__pre_restoration_roof","mesh":26},{"name":"documented__lower_opening_0_left","mesh":27},{"name":"documented__lower_opening_0_right","mesh":28},{"name":"documented__lower_opening_0_top","mesh":29},{"name":"documented__lower_opening_0_bottom","mesh":30},{"name":"documented__lower_opening_1_left","mesh":31},{"name":"documented__lower_opening_1_right","mesh":32},{"name":"documented__lower_opening_1_top","mesh":33},{"name":"documented__lower_opening_1_bottom","mesh":34},{"name":"hypothesis__west_service_mass","mesh":35}],"buffers":[{"uri":"data:application/octet-stream;base64,","byteLength":3784}],"bufferViews":[{"buffer":0,"byteOffset":0,"byteLength":144},{"buffer":0,"byteOffset":144,"byteLength":96},{"buffer":0,"byteOffset":240,"byteLength":32},{"buffer":0,"byteOffset":272,"byteLength":96},{"buffer":0,"byteOffset":368,"byteLength":96},{"buffer":0,"byteOffset":464,"byteLength":96},{"buffer":0,"byteOffset":560,"byteLength":96},{"buffer":0,"byteOffset":656,"byteLength":96},{"buffer":0,"byteOffset":752,"byteLength":96},{"buffer":0,"byteOffset":848,"byteLength":96},{"buffer":0,"byteOffset":944,"byteLength":96},{"buffer":0,"byteOffset":1040,"byteLength":96},{"buffer":0,"byteOffset":1136,"byteLength":96},{"buffer":0,"byteOffset":1232,"byteLength":96},{"buffer":0,"byteOffset":1328,"byteLength":96},{"buffer":0,"byteOffset":1424,"byteLength":96},{"buffer":0,"byteOffset":1520,"byteLength":96},{"buffer":0,"byteOffset":1616,"byteLength":96},{"buffer":0,"byteOffset":1712,"byteLength":96},{"buffer":0,"byteOffset":1808,"byteLength":96},{"buffer":0,"byteOffset":1904,"byteLength":96},{"buffer":0,"byteOffset":2000,"byteLength":96},{"buffer":0,"byteOffset":2096,"byteLength":96},{"buffer":0,"byteOffset":2192,"byteLength":96},{"buffer":0,"byteOffset":2288,"byteLength":96},{"buffer":0,"byteOffset":2384,"byteLength":96},{"buffer":0,"byteOffset":2480,"byteLength":96},{"buffer":0,"byteOffset":2576,"byteLength":96},{"buffer":0,"byteOffset":2672,"byteLength":120},{"buffer":0,"byteOffset":2792,"byteLength":96},{"buffer":0,"byteOffset":2888,"byteLength":96},{"buffer":0,"byteOffset":2984,"byteLength":96},{"buffer":0,"byteOffset":3080,"byteLength":96},{"buffer":0,"byteOffset":3176,"byteLength":96},{"buffer":0,"byteOffset":3272,"byteLength":96},{"buffer":0,"byteOffset":3368,"byteLength":96},{"buffer":0,"byteOffset":3464,"byteLength":96},{"buffer":0,"byteOffset":3560,"byteLength":96},{"buffer":0,"byteOffset":3656,"byteLength":96},{"buffer":0,"byteOffset":3752,"byteLength":32}]}